# xmcd
#
# Track frame offsets: 
#        150
#        17621
#        33331
#        46699
#        59013
#        76786
#        90932
#        106775
#        112253
#        127178
#        142409
#        165546
#        181009
#        187217
#        205356
#        220744
#
# Disc length: 3120 seconds
#
# Revision: 0
# Processed by: cddbd v1.5.2PL0 Copyright (c) Steve Scherf et al.
# Submitted via: ExactAudioCopyFreeDBPlugin 1.0
#
DISCID=df0c2e10
DTITLE=Galactic - From the Corner to the Block
DYEAR=2008
DGENRE=Funk
TTITLE0=What You Need (with Lyrics Brown)
TTITLE1=And I'm Out (with Mr. Lif)
TTITLE2=The Corner (with Gift of Gab)
TTITLE3=Second and Dryades (with Big Chief Monk Boudreaux)
TTITLE4=Think Back (with Chali 2na)
TTITLE5=Bounce Baby (with Z-Trip)
TTITLE6=Hustle Up (with Boots Riley)
TTITLE7=Sidewalk Stepper
TTITLE8=From the Corner to the Block (with Juvenile and Soul Rebels Bras
TTITLE8=s Band)
TTITLE9=Squarebiz (with Ladybug Mecca and Nino Moschella) 
TTITLE10=Tuff Love (with Trombone Shorty)
TTITLE11=No Way (with Lateef the Truth Speaker)
TTITLE12=Fanfare
TTITLE13=Find My Home (with Vursaytl and Ohmega Watts)
TTITLE14=I Want Peace (with Amp Fiddler)
TTITLE15=Valley of Pain (with Dendemann)
EXTD=
EXTT0=
EXTT1=
EXTT2=
EXTT3=
EXTT4=
EXTT5=
EXTT6=
EXTT7=
EXTT8=
EXTT9=
EXTT10=
EXTT11=
EXTT12=
EXTT13=
EXTT14=
EXTT15=
PLAYORDER=
